<svg xmlns="http://www.w3.org/2000/svg" xmlns:xlink="http://www.w3.org/1999/xlink" xmlns:lucid="lucid" width="1516.6" height="1101.6"><g transform="translate(1676.6 1200)" lucid:page-tab-id="0_0"><path d="M-1806.4-1259.2H64V64h-1870.4z" fill="#fff"/><path d="M-1460-1118c0-16.57 13.43-30 30-30h1220c16.57 0 30 13.43 30 30v768c0 16.57-13.43 30-30 30h-1220c-16.57 0-30-13.43-30-30z" stroke="#474747" fill-opacity="0"/><path d="M-1352-1145.6v3.54c0 6.42-7.1 13.05-15.76 13.05h-46.48c-8.66 0-15.75-6.64-15.75-13.06v-3.54z" fill="#9d5125"/><path d="M-1399.97-1180c8.03 0 14.82 4.4 18.17 11.67 4.6-3.14 10.92-1.98 14.04 2.65 1.17 1.64 1.7 3.32 1.8 5.3 7.87.68 13.95 8.25 13.95 14.27v1.3c0 6.45-7.1 13-15.76 13h-46.5c-8.64 0-15.74-6.55-15.74-13v-1.3c0-5.02 4.2-11.87 10.06-13.56v-.57c.08-10.95 8.97-19.82 19.97-19.77z" fill="#f58535"/><path d="M-1410.46-1156.87l-5.2 18.2h3.04l1.17-4.43h5.38l1.1 4.43h3.05l-4.8-18.2zm-.47 11.4l2.22-8.98 2.1 8.97zM-1388.8-1142.66h-.03l-2.47-14.2h-3.1l-2.4 14.13h-.06l-2.4-14.14h-2.95l3.53 18.2h3.38l2.35-13.7h.06l2.36 13.7h3.4l3.64-18.2h-2.9l-2.4 14.2zM-1374.1-1148.6l-1.98-.72c-1.93-.7-2.74-1.53-2.74-3.1-.17-1.26.74-2.43 2-2.6.16-.02.3-.02.45-.02 1.26-.17 2.4.72 2.58 1.96.04.25.03.44 0 .68v.38h2.93v-.4c0-1.9-.5-4.8-5.18-4.8-3.44 0-5.7 1.84-5.7 5.16 0 2.6 1.1 3.97 3.82 5l2 .68c1.6.23 2.73 1.6 2.64 3.2.04 1.45-1.08 2.64-2.5 2.68h-.28c-2 0-3-1.12-3-3.33v-.47h-2.9v.44c0 2.54 1.02 5.53 5.52 5.53 3.7 0 6.07-1.6 6.07-5.48.04-2.5-1.1-3.9-3.7-4.8z" fill="#fff"/><use xlink:href="#a" transform="matrix(1,0,0,1,-1460,-350) translate(595.875 12.799999999999999)"/><use xlink:href="#b" transform="matrix(1,0,0,1,-1460,-350) translate(641.175 12.799999999999999)"/><path d="M-1617.56-818.22h-20.73c-.95 0-1.7-.76-1.7-1.7v-2.54c0-9.48 6.23-17.44 15.5-19.67.4-.1.8-.04 1.2.17 2.73 1.46 5.68 1.46 8.4 0 .4-.2.8-.26 1.22-.17 2.43.6 4.43 1.47 6.5 2.85l-1.9 2.83c-1.55-1-3-1.68-4.8-2.15-3.45 1.58-7 1.58-10.43 0-7.4 2.06-12.3 8.5-12.3 16.14v.84h19.04z" stroke="#fff" stroke-opacity="0" fill="#232f3e"/><path d="M-1619.12-837.54c-6.17 0-11.17-5-11.17-11.14 0-6.16 5-11.15 11.18-11.15 6.16-.07 11.2 4.88 11.26 11 .04 4.27-2.1 7.9-5.86 9.9-1.72.97-3.4 1.4-5.4 1.4zm0-18.9c-4.3 0-7.83 3.45-7.85 7.76 0 2.92 1.48 5.4 4.06 6.8 2.43 1.3 5.12 1.3 7.57 0 2.6-1.4 4.1-3.95 4.06-6.9-.05-4.27-3.57-7.68-7.85-7.64zM-1561.68-818.22h-20.75v-3.4h19.04v-.83c0-7.67-4.9-14.1-12.25-16.17-3.45 1.6-7 1.6-10.46 0-1.82.5-3.3 1.2-4.84 2.28l-1.94-2.8c2.07-1.44 4.08-2.35 6.5-2.97.44-.1.86-.06 1.26.16 2.7 1.46 5.7 1.46 8.42 0 .4-.22.8-.27 1.2-.17 9.25 2.22 15.5 10.16 15.5 19.65v2.53c0 .94-.76 1.68-1.68 1.7z" stroke="#fff" stroke-opacity="0" fill="#232f3e"/><path d="M-1580.92-837.54c-6.2 0-11.23-5.05-11.23-11.25s5.06-11.2 11.28-11.2c6.2 0 11.23 5.05 11.23 11.25 0 4.23-2.14 7.82-5.85 9.84-1.75.94-3.44 1.36-5.42 1.36zm0-18.9c-4.3 0-7.8 3.45-7.83 7.76-.02 2.92 1.46 5.42 4.05 6.8 2.43 1.3 5.13 1.3 7.6 0 2.62-1.4 4.13-3.97 4.08-6.96-.1-4.26-3.62-7.68-7.9-7.6zM-1572.8-780h-54.46c-.92 0-1.67-.75-1.67-1.7v-3.6c-.06-13.1 8.6-24.1 21.32-27.18.46-.13.86-.06 1.27.13 4.04 2.18 8.5 2.18 12.6 0 .34-.2.75-.26 1.2-.13 12.78 3.06 21.45 14.06 21.4 27.18v3.6c0 .95-.76 1.7-1.68 1.7zm-52.72-3.38h50.97v-1.92c0-11.27-7.28-20.74-18.2-23.66-4.8 2.3-9.83 2.3-14.62 0-10.93 2.92-18.15 12.4-18.15 23.66z" stroke="#fff" stroke-opacity="0" fill="#232f3e"/><path d="M-1599.98-807.36c-2.7 0-5-.58-7.4-1.86-7.4-4.07-10.13-13.34-6.1-20.77 4.1-7.4 13.38-10.12 20.83-6.08 7.42 4.07 10.15 13.34 6.1 20.77-1.47 2.68-3.4 4.6-6.1 6.08-2.36 1.28-4.66 1.86-7.33 1.86zm0-26.76c-4.44-.06-8.28 2.17-10.42 6.1-3.07 5.64-.98 12.74 4.7 15.83 3.67 1.97 7.7 1.97 11.4 0 3.95-2.13 6.22-5.95 6.16-10.42-.1-6.42-5.4-11.6-11.84-11.5z" stroke="#fff" stroke-opacity="0" fill="#232f3e"/><path d="M-1561.22-818.22h-39.72c-.68 0-1.23-.54-1.23-1.23v-2.64c-.04-9.53 6.3-17.56 15.56-19.8.33-.1.63-.06.92.08 2.95 1.6 6.2 1.6 9.2 0 .25-.14.54-.2.88-.1 9.32 2.24 15.64 10.27 15.6 19.83v2.65c0 .7-.55 1.23-1.22 1.23zm-38.46-2.47h37.2v-1.4c0-8.2-5.32-15.1-13.3-17.25-3.5 1.7-7.16 1.7-10.66 0-7.97 2.14-13.24 9.05-13.24 17.26z" stroke="#fff" stroke-opacity="0" stroke-width=".73" fill="#fff" fill-opacity="0"/><path d="M-1599.06-818.22h-39.72c-.67 0-1.22-.54-1.22-1.23v-2.64c-.04-9.53 6.28-17.56 15.56-19.8.34-.1.63-.06.93.08 2.94 1.6 6.2 1.6 9.18 0 .25-.14.55-.2.88-.1 9.32 2.24 15.65 10.27 15.6 19.83v2.65c0 .7-.54 1.23-1.22 1.23zm-38.45-2.47h37.18v-1.4c0-8.2-5.3-15.1-13.28-17.25-3.5 1.7-7.17 1.7-10.67 0-7.97 2.14-13.24 9.05-13.24 17.26z" stroke="#fff" stroke-opacity="0" stroke-width=".73" fill="#fff" fill-opacity="0"/><use xlink:href="#a" transform="matrix(1,0,0,1,-1670,-771) translate(15.399999999999999 14.4)"/><use xlink:href="#c" transform="matrix(1,0,0,1,-1670,-771) translate(60.699999999999996 14.4)"/><use xlink:href="#d" transform="matrix(1,0,0,1,-1670,-771) translate(46.55 36)"/><path d="M-1280-1030c0-16.57 13.43-30 30-30h980c16.57 0 30 13.43 30 30v260c0 16.57-13.43 30-30 30h-980c-16.57 0-30-13.43-30-30z" fill-opacity="0"/><path d="M-1264.96-1055.9l3.17-1.7 4.72-1.56 4.93-.76 2.15-.08h14.85m14.85 0h29.7m14.84 0h29.7m14.85 0h29.68m14.85 0h29.7m14.85 0h29.7m14.84 0h29.7m14.85 0h29.7m14.85 0h29.7m14.84 0h29.7m14.85 0h29.7m14.85 0h29.7m14.85 0h29.7m14.84 0h29.7m14.85 0h29.68m14.85 0h29.7m14.85 0h29.7m14.84 0h29.7m14.85 0h29.7m14.85 0h29.7m14.84 0h29.7m14.85 0h29.7m14.85 0H-270l5 .42 4.82 1.22 4.54 2 .6.42m10.95 10.98l1.7 3.17 1.56 4.72.76 4.93.08 2.15v14.44m0 14.45v28.88m0 14.44v28.9m0 14.44v28.88m0 14.45v28.88m0 14.44v28.9m0 14.44V-770l-.42 5-1.22 4.82-2 4.54-.42.6m-10.98 10.95l-3.17 1.7-4.72 1.56-4.93.76-2.15.08h-14.85m-14.85 0h-29.7m-14.84 0h-29.7m-14.85 0h-29.68m-14.85 0h-29.7m-14.85 0h-29.7m-14.84 0h-29.7m-14.85 0h-29.7m-14.85 0h-29.7m-14.84 0h-29.7m-14.85 0h-29.7m-14.85 0h-29.7m-14.85 0h-29.7m-14.84 0h-29.7m-14.85 0h-29.68m-14.85 0h-29.7m-14.85 0h-29.7m-14.84 0h-29.7m-14.85 0h-29.7m-14.85 0h-29.7m-14.84 0h-29.7m-14.85 0h-29.7m-14.85 0H-1250l-5-.42-4.82-1.22-4.54-2-.6-.42m-10.95-10.98l-1.7-3.17-1.56-4.72-.76-4.93-.08-2.15v-14.44m0-14.45v-28.88m0-14.44v-28.9m0-14.44v-28.88m0-14.45v-28.88m0-14.44v-28.9m0-14.44V-1030l.42-5 1.22-4.82 2-4.54.42-.6" stroke="#f7981f" stroke-width="3" fill="none"/><use xlink:href="#e" transform="matrix(1,0,0,1,-1280,-770) translate(454.825 12.799999999999999)"/><use xlink:href="#f" transform="matrix(1,0,0,1,-1280,-770) translate(544.225 12.799999999999999)"/><path d="M-1280-650c0-16.57 13.43-30 30-30h980c16.57 0 30 13.43 30 30v220c0 16.57-13.43 30-30 30h-980c-16.57 0-30-13.43-30-30z" fill-opacity="0"/><path d="M-1264.96-675.9l3.17-1.7 4.72-1.56 4.93-.76 2.15-.08h14.85m14.85 0h29.7m14.84 0h29.7m14.85 0h29.68m14.85 0h29.7m14.85 0h29.7m14.84 0h29.7m14.85 0h29.7m14.85 0h29.7m14.84 0h29.7m14.85 0h29.7m14.85 0h29.7m14.85 0h29.7m14.84 0h29.7m14.85 0h29.68m14.85 0h29.7m14.85 0h29.7m14.84 0h29.7m14.85 0h29.7m14.85 0h29.7m14.84 0h29.7m14.85 0h29.7m14.85 0H-270l5 .42 4.82 1.22 4.54 2 .6.42m10.95 10.98l1.7 3.17 1.56 4.72.76 4.93.08 2.15v14.67m0 14.66v29.34m0 14.66v29.34m0 14.66v29.34m0 14.66v29.34m0 14.66V-430l-.42 5-1.22 4.82-2 4.54-.42.6m-10.98 10.95l-3.17 1.7-4.72 1.56-4.93.76-2.15.08h-14.85m-14.85 0h-29.7m-14.84 0h-29.7m-14.85 0h-29.68m-14.85 0h-29.7m-14.85 0h-29.7m-14.84 0h-29.7m-14.85 0h-29.7m-14.85 0h-29.7m-14.84 0h-29.7m-14.85 0h-29.7m-14.85 0h-29.7m-14.85 0h-29.7m-14.84 0h-29.7m-14.85 0h-29.68m-14.85 0h-29.7m-14.85 0h-29.7m-14.84 0h-29.7m-14.85 0h-29.7m-14.85 0h-29.7m-14.84 0h-29.7m-14.85 0h-29.7m-14.85 0H-1250l-5-.42-4.82-1.22-4.54-2-.6-.42m-10.95-10.98l-1.7-3.17-1.56-4.72-.76-4.93-.08-2.15v-14.67m0-14.66v-29.34m0-14.66v-29.34m0-14.66v-29.34m0-14.66v-29.34m0-14.66V-650l.42-5 1.22-4.82 2-4.54.42-.6" stroke="#f7981f" stroke-width="3" fill="none"/><use xlink:href="#e" transform="matrix(1,0,0,1,-1280,-430) translate(454.825 12.799999999999999)"/><use xlink:href="#f" transform="matrix(1,0,0,1,-1280,-430) translate(544.225 12.799999999999999)"/><path d="M-1320-1058c0-16.57 13.43-30 30-30h1060c16.57 0 30 13.43 30 30v668c0 16.57-13.43 30-30 30h-1060c-16.57 0-30-13.43-30-30z" stroke="#474747" fill-opacity="0"/><path d="M-1212-1085.6v3.54c0 6.42-7.1 13.05-15.76 13.05h-46.48c-8.66 0-15.75-6.64-15.75-13.06v-3.54z" fill="#9d5125"/><path d="M-1259.97-1120c8.03 0 14.82 4.4 18.17 11.67 4.6-3.14 10.92-1.98 14.04 2.65 1.17 1.64 1.7 3.32 1.8 5.3 7.87.68 13.95 8.25 13.95 14.27v1.3c0 6.45-7.1 13-15.76 13h-46.5c-8.64 0-15.74-6.55-15.74-13v-1.3c0-5.02 4.2-11.87 10.06-13.56v-.57c.08-10.95 8.97-19.82 19.97-19.77z" fill="#f58535"/><path d="M-1271.1-1096.87h3.08l3.1 14.58 3.32-14.54h3.1l-4.6 18.2h-3.7zM-1256.63-1096.87h5.77c3.5 0 5.04 2.2 5.04 5.3 0 3.1-1.9 5.4-5.33 5.4h-2.57v7.53h-2.9zm2.9 8.5h2.08c1.56 0 2.9-.83 2.9-3.14 0-1.98-.78-3.17-3.1-3.17h-1.87zM-1232.2-1085.17v.38c0 3.32-1.3 6.52-5.6 6.52-4.6 0-6.04-2.97-6.04-9.47s1.43-9.46 6.05-9.46c5.2 0 5.54 3.8 5.54 5.7v.37h-2.9v-.3c0-1.7-.5-3.64-2.6-3.57-2.08.08-3.1 1.35-3.1 7.22 0 5.87.92 7.3 3.14 7.3 2.42 0 2.7-2.7 2.7-4.42v-.3z" fill="#fff"/><use xlink:href="#g" transform="matrix(1,0,0,1,-1320,-390) translate(482.65 12.799999999999999)"/><use xlink:href="#h" transform="matrix(1,0,0,1,-1320,-390) translate(535.5 12.799999999999999)"/><use xlink:href="#b" transform="matrix(1,0,0,1,-1320,-390) translate(594.4 12.799999999999999)"/><path d="M-1200-1018c0-16.57 13.43-30 30-30h260c16.57 0 30 13.43 30 30v228c0 16.57-13.43 30-30 30h-260c-16.57 0-30-13.43-30-30z" stroke="#474747" fill-opacity="0"/><path d="M-1138.03-1059.76v-5.9c0-7.25-5.88-13.13-13.12-13.13-7.24 0-13.12 5.9-13.12 13.14v5.9h6.64v-5.9c0-3.58 2.9-6.5 6.48-6.5 3.57 0 6.48 2.92 6.48 6.5v5.9h6.64z" fill="#876a22"/><path d="M-1138.02-1059.74h5.42v20.83h-37.4v-20.84h5.72v-7.1c0-7.28 5.87-13.16 13.13-13.16 7.26 0 13.13 5.88 13.13 13.15v7.1zm-6.66 0v-7.1c0-3.6-2.88-6.5-6.47-6.5-3.6 0-6.47 2.9-6.47 6.5v7.1h12.94z" fill="#daa835"/><path d="M-1170-1038.9h37.4v.9h-37.4z" fill="#876a22"/><use xlink:href="#i" transform="matrix(1,0,0,1,-1200,-790) translate(98.55 12.799999999999999)"/><use xlink:href="#j" transform="matrix(1,0,0,1,-1200,-790) translate(152.45 12.799999999999999)"/><use xlink:href="#k" transform="matrix(1,0,0,1,-1200,-790) translate(211.45 12.799999999999999)"/><path d="M-680-1018c0-16.57 13.43-30 30-30h260c16.57 0 30 13.43 30 30v228c0 16.57-13.43 30-30 30h-260c-16.57 0-30-13.43-30-30z" stroke="#474747" fill-opacity="0"/><path d="M-618.03-1059.76v-5.9c0-7.25-5.88-13.13-13.12-13.13-7.24 0-13.12 5.9-13.12 13.14v5.9h6.64v-5.9c0-3.58 2.9-6.5 6.48-6.5 3.57 0 6.48 2.92 6.48 6.5v5.9h6.64z" fill="#876a22"/><path d="M-618.02-1059.74h5.42v20.83H-650v-20.84h5.72v-7.1c0-7.28 5.87-13.16 13.13-13.16 7.26 0 13.13 5.88 13.13 13.15v7.1zm-6.66 0v-7.1c0-3.6-2.88-6.5-6.47-6.5-3.6 0-6.47 2.9-6.47 6.5v7.1h12.94z" fill="#daa835"/><path d="M-650-1038.9h37.4v.9H-650z" fill="#876a22"/><use xlink:href="#l" transform="matrix(1,0,0,1,-680,-790) translate(100.05 12.799999999999999)"/><use xlink:href="#j" transform="matrix(1,0,0,1,-680,-790) translate(150.95 12.799999999999999)"/><use xlink:href="#k" transform="matrix(1,0,0,1,-680,-790) translate(209.95 12.799999999999999)"/><path d="M-1200-618c0-16.57 13.43-30 30-30h260c16.57 0 30 13.43 30 30v168c0 16.57-13.43 30-30 30h-260c-16.57 0-30-13.43-30-30z" stroke="#474747" fill-opacity="0"/><path d="M-1138.03-659.76v-5.9c0-7.25-5.88-13.13-13.12-13.13-7.24 0-13.12 5.9-13.12 13.14v5.9h6.64v-5.9c0-3.58 2.9-6.5 6.48-6.5 3.57 0 6.48 2.92 6.48 6.5v5.9h6.64z" fill="#876a22"/><path d="M-1138.02-659.74h5.42v20.83h-37.4v-20.84h5.72v-7.1c0-7.28 5.87-13.16 13.13-13.16 7.26 0 13.13 5.88 13.13 13.15v7.1zm-6.66 0v-7.1c0-3.6-2.88-6.5-6.47-6.5-3.6 0-6.47 2.9-6.47 6.5v7.1h12.94z" fill="#daa835"/><path d="M-1170-638.9h37.4v.9h-37.4z" fill="#876a22"/><use xlink:href="#i" transform="matrix(1,0,0,1,-1200,-450) translate(98.55 12.799999999999999)"/><use xlink:href="#j" transform="matrix(1,0,0,1,-1200,-450) translate(152.45 12.799999999999999)"/><use xlink:href="#m" transform="matrix(1,0,0,1,-1200,-450) translate(211.45 12.799999999999999)"/><path d="M-680-618c0-16.57 13.43-30 30-30h260c16.57 0 30 13.43 30 30v168c0 16.57-13.43 30-30 30h-260c-16.57 0-30-13.43-30-30z" stroke="#474747" fill-opacity="0"/><path d="M-618.03-659.76v-5.9c0-7.25-5.88-13.13-13.12-13.13-7.24 0-13.12 5.9-13.12 13.14v5.9h6.64v-5.9c0-3.58 2.9-6.5 6.48-6.5 3.57 0 6.48 2.92 6.48 6.5v5.9h6.64z" fill="#876a22"/><path d="M-618.02-659.74h5.42v20.83H-650v-20.84h5.72v-7.1c0-7.28 5.87-13.16 13.13-13.16 7.26 0 13.13 5.88 13.13 13.15v7.1zm-6.66 0v-7.1c0-3.6-2.88-6.5-6.47-6.5-3.6 0-6.47 2.9-6.47 6.5v7.1h12.94z" fill="#daa835"/><path d="M-650-638.9h37.4v.9H-650z" fill="#876a22"/><use xlink:href="#l" transform="matrix(1,0,0,1,-680,-450) translate(100.05 12.799999999999999)"/><use xlink:href="#j" transform="matrix(1,0,0,1,-680,-450) translate(150.95 12.799999999999999)"/><use xlink:href="#m" transform="matrix(1,0,0,1,-680,-450) translate(209.95 12.799999999999999)"/><path d="M-1420-728.03c0 26.5-22.4 48.02-50 48.02s-50-21.53-50-48.03 22.4-48.03 50-48.03 50 21.52 50 48.02z" fill="#9d5025"/><path d="M-1520-731.98h100v3.94h-100v-3.94z" fill="#9d5025"/><path d="M-1420-731.98c0 26.5-22.4 48.03-50 48.03s-50-21.52-50-48.02c0-26.5 22.4-48.03 50-48.03s50 21.52 50 48.02z" fill="#f58536"/><path d="M-1507.7-727.2v-1.25c.38-5.82 3.77-10.67 9.26-13.22.53-10.72 10.02-19 21.24-18.43 7 .32 12.88 3.74 16.42 9.56 5.73-2.3 12.28.23 14.7 5.7.37.77.6 1.42.74 2.2 7.54 1.44 12.96 8.37 12.96 14.2v1.15c0 7.12-7.68 13.36-16.42 13.36h-42.56c-8.66.05-16.34-6.2-16.34-13.26z" fill="#fff"/><path d="M-1459.76-745.43l-3.2 2.1-1.62-3.37c-2.48-5.28-7.56-8.52-13.62-8.56h-.06c-8.28 0-15.05 6.48-15.05 14.5v2.7l-2.36.64c-3.97 1.53-6.57 4.88-6.9 9v1.16c0 3.9 4.95 8.4 11.27 8.4h42.6c6.4 0 11.28-4.5 11.28-8.4v-1.17c0-3.93-4.56-9.06-9.84-9.46l-2.86-.2-.2-2.74c0-1.17-.4-2.1-1.04-3.06-1.9-2.66-5.67-3.3-8.4-1.5z" fill="#f58536"/><use xlink:href="#n" transform="matrix(1,0,0,1,-1520,-680) translate(19.525 14.4)"/><use xlink:href="#o" transform="matrix(1,0,0,1,-1520,-680) translate(16.525 36)"/><path d="M-1060-538.43c0 21.2-17.92 38.42-40 38.42s-40-17.22-40-38.43c0-21.2 17.92-38.42 40-38.42s40 17.2 40 38.42z" fill="#9d5025"/><path d="M-1060-541.58c0 21.2-17.92 38.42-40 38.42s-40-17.2-40-38.42c0-21.2 17.92-38.42 40-38.42s40 17.2 40 38.42z" fill="#f58536"/><path d="M-1089.18-559.42h4.22v35.66h-4.22v-35.66zM-1077.3-550.4l11.03 8.64-11.04 9v-17.63z" fill="#fff"/><path d="M-1116.36-543.6l2.43 1.87-2.68 2.17h41.14v-4.04h-40.9zM-1116.6-557.4h31.64v-4.04h-31.4l2.4 1.88-2.65 2.17zM-1113.95-523.9l-2.66 2.17h31.64v-4.05h-31.4l2.4 1.88zM-1125.4-548.64l8.83 6.9-8.83 7.2v-14.1zM-1125.4-566.47l8.83 6.9-8.83 7.2v-14.1zM-1125.4-530.8l8.83 6.9-8.83 7.2v-14.1z" fill="#fff"/><use xlink:href="#p" transform="matrix(1,0,0,1,-1140,-500) translate(1.9249999999999972 14.4)"/><use xlink:href="#q" transform="matrix(1,0,0,1,-1140,-500) translate(43.875 14.4)"/><use xlink:href="#o" transform="matrix(1,0,0,1,-1140,-500) translate(6.524999999999999 36)"/><path d="M-1080-958.43c0 21.2-17.92 38.42-40 38.42s-40-17.22-40-38.43c0-21.2 17.92-38.42 40-38.42s40 17.2 40 38.42z" fill="#9d5025"/><path d="M-1080-961.58c0 21.2-17.92 38.42-40 38.42s-40-17.2-40-38.42c0-21.2 17.92-38.42 40-38.42s40 17.2 40 38.42z" fill="#f58536"/><path d="M-1109.18-979.42h4.22v35.66h-4.22v-35.66zM-1097.3-970.4l11.03 8.64-11.04 9v-17.63z" fill="#fff"/><path d="M-1136.36-963.6l2.43 1.87-2.68 2.17h41.14v-4.04h-40.9zM-1136.6-977.4h31.64v-4.04h-31.4l2.4 1.88-2.65 2.17zM-1133.95-943.9l-2.66 2.17h31.64v-4.05h-31.4l2.4 1.88zM-1145.4-968.64l8.83 6.9-8.83 7.2v-14.1zM-1145.4-986.47l8.83 6.9-8.83 7.2v-14.1zM-1145.4-950.8l8.83 6.9-8.83 7.2v-14.1z" fill="#fff"/><use xlink:href="#p" transform="matrix(1,0,0,1,-1160,-920) translate(1.9249999999999972 14.4)"/><use xlink:href="#q" transform="matrix(1,0,0,1,-1160,-920) translate(43.875 14.4)"/><use xlink:href="#o" transform="matrix(1,0,0,1,-1160,-920) translate(6.524999999999999 36)"/><path d="M-660-1040h280v580h-280z" fill="#fff" fill-opacity="0"/><path d="M-653-1040h6m4 0h6m4 0h6m4 0h6m4 0h6m4 0h6m4 0h6m4 0h6m4 0h6m4 0h6m4 0h6m4 0h6m4 0h6m4 0h6m4 0h6m4 0h6m4 0h6m4 0h6m4 0h6m4 0h6m4 0h6m4 0h6m4 0h6m4 0h6m4 0h6m4 0h6m4 0h6m4 0h3v3m0 4v6m0 4v6m0 4v6m0 4v6m0 4v6m0 4v6m0 4v6m0 4v6m0 4v6m0 4v6m0 4v6m0 4v6m0 4v6m0 4v6m0 4v6m0 4v6m0 4v6m0 4v6m0 4v6m0 4v6m0 4v6m0 4v6m0 4v6m0 4v6m0 4v6m0 4v6m0 4v6m0 4v6m0 4v6m0 4v6m0 4v6m0 4v6m0 4v6m0 4v6m0 4v6m0 4v6m0 4v6m0 4v6m0 4v6m0 4v6m0 4v6m0 4v6m0 4v6m0 4v6m0 4v6m0 4v6m0 4v6m0 4v6m0 4v6m0 4v6m0 4v6m0 4v6m0 4v6m0 4v6m0 4v6m0 4v6m0 4v6m0 4v3h-3m-4 0h-6m-4 0h-6m-4 0h-6m-4 0h-6m-4 0h-6m-4 0h-6m-4 0h-6m-4 0h-6m-4 0h-6m-4 0h-6m-4 0h-6m-4 0h-6m-4 0h-6m-4 0h-6m-4 0h-6m-4 0h-6m-4 0h-6m-4 0h-6m-4 0h-6m-4 0h-6m-4 0h-6m-4 0h-6m-4 0h-6m-4 0h-6m-4 0h-6m-4 0h-6m-4 0h-6m-4 0h-3v-3m0-4v-6m0-4v-6m0-4v-6m0-4v-6m0-4v-6m0-4v-6m0-4v-6m0-4v-6m0-4v-6m0-4v-6m0-4v-6m0-4v-6m0-4v-6m0-4v-6m0-4v-6m0-4v-6m0-4v-6m0-4v-6m0-4v-6m0-4v-6m0-4v-6m0-4v-6m0-4v-6m0-4v-6m0-4v-6m0-4v-6m0-4v-6m0-4v-6m0-4v-6m0-4v-6m0-4v-6m0-4v-6m0-4v-6m0-4v-6m0-4v-6m0-4v-6m0-4v-6m0-4v-6m0-4v-6m0-4v-6m0-4v-6m0-4v-6m0-4v-6m0-4v-6m0-4v-6m0-4v-6m0-4v-6m0-4v-6m0-4v-6m0-4v-6m0-4v-6m0-4v-6m0-4v-6m0-4v-6m0-4v-6m0-4v-6m0-4v-6m0-4v-3h3" stroke="#d86613" stroke-width="2" fill="none"/><path d="M-548-1040h56v56h-56v-56z" stroke="#fff" stroke-opacity="0" fill="#d86613"/><path d="M-528.32-1016.27l-1.14 1.13 2.33 2.34H-540v1.6h12.87l-2.33 2.34 1.14 1.13 4.27-4.27-4.27-4.27zM-500-1012.8h-12.87l2.33-2.34-1.14-1.13-4.27 4.27 4.27 4.27 1.14-1.13-2.33-2.34H-500v-1.6zM-520.8-1029.37v12.87h1.6v-12.87l2.34 2.33 1.13-1.13-4.27-4.28-4.27 4.28 1.13 1.13 2.34-2.33zM-519.2-994.63v-12.87h-1.6v12.87l-2.34-2.33-1.13 1.13 4.27 4.28 4.27-4.28-1.13-1.13-2.34 2.33z" stroke="#fff" stroke-opacity="0" fill="#fff"/><use xlink:href="#r" transform="matrix(1,0,0,1,-660,-969) translate(89.55 14.4)"/><use xlink:href="#s" transform="matrix(1,0,0,1,-660,-969) translate(131.55 14.4)"/><path d="M-574-925.1l-6 1.65v46.9l6 1.65 24.37-23.9-24.36-26.3z" fill="#9d5025"/><path d="M-559.97-876.7l-14.02 1.8v-50.2l14.03 1.75v46.64z" fill="#f58536"/><path d="M-567.35-926.95l7.4-2.03 35.1 31.06-35.1 26.88-7.4-2.03v-53.88z" fill="#9d5025"/><path d="M-542.48-873.76l-17.48 2.72v-57.94l17.48 2.73v52.5z" fill="#f58536"/><path d="M-551.73-931.25l9.28-2.57 51.78 39.3-51.78 28.32-9.28-2.57v-62.48z" fill="#9d5025"/><path d="M-520.02-870.73l-22.44 4.53v-67.62l22.44 4.53v58.57z" fill="#f58536"/><path d="M-532-936.72L-520-940l56.04 42.24-56.04 37.76-11.97-3.28v-73.44z" fill="#9d5025"/><path d="M-460-876.56L-520.03-860v-80l60 16.56v46.88z" fill="#f58536"/><use xlink:href="#t" transform="matrix(1,0,0,1,-580,-860) translate(7.049999999999997 14.4)"/><use xlink:href="#u" transform="matrix(1,0,0,1,-580,-860) translate(78 14.4)"/><path d="M-574-585.1l-6 1.65v46.9l6 1.65 24.37-23.9-24.36-26.3z" fill="#9d5025"/><path d="M-559.97-536.7l-14.02 1.8v-50.2l14.03 1.75v46.64z" fill="#f58536"/><path d="M-567.35-586.95l7.4-2.03 35.1 31.06-35.1 26.88-7.4-2.03v-53.88z" fill="#9d5025"/><path d="M-542.48-533.76l-17.48 2.72v-57.94l17.48 2.73v52.5z" fill="#f58536"/><path d="M-551.73-591.25l9.28-2.57 51.78 39.3-51.78 28.32-9.28-2.57v-62.48z" fill="#9d5025"/><path d="M-520.02-530.73l-22.44 4.53v-67.62l22.44 4.53v58.57z" fill="#f58536"/><path d="M-532-596.72L-520-600l56.04 42.24-56.04 37.76-11.97-3.28v-73.44z" fill="#9d5025"/><path d="M-460-536.56L-520.03-520v-80l60 16.56v46.88z" fill="#f58536"/><use xlink:href="#t" transform="matrix(1,0,0,1,-580,-520) translate(7.049999999999997 14.4)"/><use xlink:href="#u" transform="matrix(1,0,0,1,-580,-520) translate(78 14.4)"/><path d="M-640-920c0-16.57 13.43-30 30-30h180c16.57 0 30 13.43 30 30v90c0 16.57-13.43 30-30 30h-180c-16.57 0-30-13.43-30-30z" stroke="#474747" stroke-width="3" fill-opacity="0"/><path d="M-640-920c0-16.57 13.43-30 30-30h180c16.57 0 30 13.43 30 30v90c0 16.57-13.43 30-30 30h-180c-16.57 0-30-13.43-30-30z" fill="none"/><path d="M-624.96-945.9l3.17-1.7 4.72-1.56 4.93-.76 2.15-.08h15m15 0h30m15 0h30m15 0h30m15 0h15l5 .42 4.82 1.22 4.54 2 .6.42m10.95 10.98l1.7 3.17 1.56 4.72.76 4.93.08 2.15v15m0 15v30m0 15v15l-.42 5-1.22 4.82-2 4.54-.42.6m-10.98 10.95l-3.17 1.7-4.72 1.56-4.93.76-2.15.08h-15m-15 0h-30m-15 0h-30m-15 0h-30m-15 0h-15l-5-.42-4.82-1.22-4.54-2-.6-.42m-10.95-10.98l-1.7-3.17-1.56-4.72-.76-4.93-.08-2.15v-15m0-15v-30m0-15v-15l.42-5 1.22-4.82 2-4.54.42-.6" stroke="red" stroke-width="3" fill="none"/><use xlink:href="#v" transform="matrix(1,0,0,1,-640,-830) translate(63.574999999999996 12.799999999999999)"/><use xlink:href="#w" transform="matrix(1,0,0,1,-640,-830) translate(130.475 12.799999999999999)"/><path d="M-640-590c0-16.57 13.43-30 30-30h180c16.57 0 30 13.43 30 30v90c0 16.57-13.43 30-30 30h-180c-16.57 0-30-13.43-30-30z" stroke="#474747" stroke-width="3" fill-opacity="0"/><path d="M-640-590c0-16.57 13.43-30 30-30h180c16.57 0 30 13.43 30 30v90c0 16.57-13.43 30-30 30h-180c-16.57 0-30-13.43-30-30z" fill="none"/><path d="M-624.96-615.9l3.17-1.7 4.72-1.56 4.93-.76 2.15-.08h15m15 0h30m15 0h30m15 0h30m15 0h15l5 .42 4.82 1.22 4.54 2 .6.42m10.95 10.98l1.7 3.17 1.56 4.72.76 4.93.08 2.15v15m0 15v30m0 15v15l-.42 5-1.22 4.82-2 4.54-.42.6m-10.98 10.95l-3.17 1.7-4.72 1.56-4.93.76-2.15.08h-15m-15 0h-30m-15 0h-30m-15 0h-30m-15 0h-15l-5-.42-4.82-1.22-4.54-2-.6-.42m-10.95-10.98l-1.7-3.17-1.56-4.72-.76-4.93-.08-2.15v-15m0-15v-30m0-15v-15l.42-5 1.22-4.82 2-4.54.42-.6" stroke="red" stroke-width="3" fill="none"/><use xlink:href="#v" transform="matrix(1,0,0,1,-640,-500) translate(63.574999999999996 12.799999999999999)"/><use xlink:href="#w" transform="matrix(1,0,0,1,-640,-500) translate(130.475 12.799999999999999)"/><path d="M-810-274.58l57.98 8.62v5.1c0 7.53-25.98 13.63-58 13.63-32 0-57.98-6.1-57.98-13.64v-5.53z" fill="#8c3123"/><path d="M-809.98-237.87c24.2 0 44.93-3.54 53.58-8.5l2.88-4.78 1.15-4.4v5.45l-19 81c0 5.08-17.3 9.1-38.6 9.1-21.33 0-38.6-4.02-38.6-9.1l-19.02-81v-5.35l4.38 9.27c8.76 4.87 29.27 8.3 53.24 8.3z" fill="#8c3123"/><path d="M-810-280c32 0 58 6.12 58 13.62 0 7.5-26 13.57-58 13.57s-58-6.02-58-13.58c0-7.56 26-13.62 58-13.62z" fill="#e05243"/><path d="M-810-243.4c29.84 0 54.4-5.2 57.62-12.06l-19.02 81c0 5.05-17.3 9.1-38.6 9.1-21.33 0-38.6-4.05-38.6-9.1l-19.03-81c3.23 6.85 27.78 12.07 57.62 12.07z" fill="#e05243"/><path d="M-823.65-235.62h25.1v24.96h-25.1v-24.96zM-831.25-201.83c6.84 0 12.4 5.5 12.4 12.3 0 6.8-5.56 12.3-12.4 12.3-6.83 0-12.38-5.5-12.38-12.3 0-6.8 5.55-12.3 12.38-12.3zM-779.2-177.8H-804l12.4-22.94 12.4 22.94z" fill="#fff"/><use xlink:href="#x" transform="matrix(1,0,0,1,-868,-160) translate(13.049999999999997 14.4)"/><use xlink:href="#y" transform="matrix(1,0,0,1,-868,-160) translate(71.05 14.4)"/><use xlink:href="#z" transform="matrix(1,0,0,1,-868,-160) translate(29.525 36)"/><path d="M-1280-728.03c0 26.5-22.4 48.02-50 48.02s-50-21.53-50-48.03 22.4-48.03 50-48.03 50 21.52 50 48.02z" fill="#9d5025"/><path d="M-1280-731.98c0 26.5-22.4 48.03-50 48.03s-50-21.52-50-48.02c0-26.5 22.4-48.03 50-48.03s50 21.52 50 48.02z" fill="#f58536"/><path d="M-1315.42-770.77v17.44h-29.18v-17.44h29.18zM-1292.85-720.3v14.2h-14.78v-14.2h14.78zM-1311.54-720.3v14.2h-14.78v-14.2h14.78zM-1334.3-720.3v14.2h-14.78v-14.2h14.78zM-1353-720.3v14.2h-14.78v-14.2h14.78z" fill="#fff"/><path d="M-1361.72-732.6h2.66v13.94h-2.66v-13.93z" fill="#fff"/><path d="M-1361.72-732.6h21.36v2.56h-21.36v-2.55z" fill="#fff"/><path d="M-1343.02-732.6h2.66v13.94h-2.66v-13.93zM-1320.26-732.6h2.66v13.94h-2.66v-13.93z" fill="#fff"/><path d="M-1320.26-732.6h21.36v2.56h-21.36v-2.55z" fill="#fff"/><path d="M-1301.56-732.6h2.66v13.94h-2.66v-13.93zM-1352.35-742.54h2.66v11.22h-2.65v-11.22zM-1331.34-755.9h2.66v13.57h-2.66v-13.57z" fill="#fff"/><path d="M-1352.35-743.6h44.15v2.54h-44.15v-2.55z" fill="#fff"/><path d="M-1310.86-742.54h2.66v11.22h-2.66v-11.22z" fill="#fff"/><use xlink:href="#A" transform="matrix(1,0,0,1,-1380,-680) translate(23.549999999999997 14.4)"/><use xlink:href="#B" transform="matrix(1,0,0,1,-1380,-680) translate(30 36)"/><use xlink:href="#C" transform="matrix(1,0,0,1,-1380,-680) translate(14.549999999999997 57.6)"/><path d="M-860-776.35h120v29.6h-120v-29.6z" fill="#9d5025"/><path d="M-860-780h120v28.8h-120V-780z" fill="#f58536"/><path d="M-860-737.93h120v30.9h-120v-30.9z" fill="#9d5025"/><path d="M-860-740.28h120v28.8h-120v-28.8z" fill="#f58536"/><path d="M-860-698.93h120V-669h-120v-29.93z" fill="#9d5025"/><path d="M-860-702.28h120v28.8h-120v-28.8z" fill="#f58536"/><path d="M-845.26-757h-2.68v-12.74h-3.6v-1.8h.3c1.66 0 3.5-.4 4.03-2.63v-.35h1.94zM-829.8-772c-3.2 4.65-4.85 9.34-5.36 14.97h-2.9c.63-5.57 2.38-10.17 5.68-14.67h-7.52v-2.54h10.1zm12.25 14.97h-10c0-7.64 7.22-7.46 7.22-12.9 0-1.45-.62-2.65-2.17-2.65-2.06 0-2.36 1.8-2.36 3.6h-2.58c0-3.5 1.34-5.66 5.05-5.66 2.38-.3 4.54 1.38 4.85 3.76v.92c0 5.82-5.56 6.18-6.9 10.48h6.9zm5.87 0h-2.78v-3.27h2.78zm10 0h-2.8v-12.74h-3.6v-1.8h.3c1.66 0 3.62-.4 4.03-2.63v-.35h2.06zm10.3.34c-4.34 0-5.16-3.37-5.16-8.42 0-5.02.93-9.5 5.36-9.5 3.1 0 4.63 1.4 4.63 4.28h-2.68c0-1-.5-2.3-1.85-2.3-2.58 0-2.68 3.5-2.68 6.06.72-1.22 1.96-1.9 3.3-1.8 2.37 0 4.22 1.8 4.22 5.23.1 4.04-1.55 6.45-5.15 6.45zm10.9-.35h-2.77v-3.27h2.78zm8.04.34c-3.3 0-5.15-2.13-5.15-9 0-6.88 1.76-9 5.16-9 3.3 0 5.05 2.14 5.05 9 0 6.85-1.74 9-5.04 9zm10.7-.35h-2.67v-3.27h2.78zm8.05.34c-3.3 0-5.14-2.13-5.14-9 0-6.88 1.85-9 5.15-9 3.4 0 5.16 2.14 5.16 9 0 6.85-1.75 9-5.05 9zM-753.64-734.8c3.3 0 5.16 2.13 5.16 9 0 6.9-1.76 9-5.16 9-3.3 0-5.15-2.2-5.15-9.05 0-6.86 1.87-8.94 5.16-8.94zm-10.7 14.27h2.77v3.34h-2.9zm-12.38-11.3h.2c1.65 0 3.6-.4 4.02-2.62v-.34h2.07v17.6h-2.9V-730h-3.5zm-6.5 11.3h2.8v3.34h-2.9zm-7.83-14.26c3 0 4.64 1.38 4.64 4.26h-2.9c0-1-.4-2.28-1.75-2.28-2.57 0-2.68 3.5-2.68 6.05.62-1.2 1.86-1.88 3.3-1.8 2.37 0 4.23 1.8 4.23 5.24 0 4.05-1.65 6.44-5.26 6.44-4.33 0-5.15-3.35-5.15-8.4 0-5.04 1.02-9.5 5.55-9.5zm-16.9 2.98h.2c1.66 0 3.62-.4 4.03-2.63v-.34h2.06v17.6h-2.78V-730h-3.6zm-6.5 11.3h2.8v3.33h-2.8zm-8.03-12.3c-2.06 0-2.37 1.8-2.37 3.6h-2.57c0-3.5 1.33-5.64 5.04-5.64 2.38-.3 4.54 1.4 4.75 3.76.1.33.1.6.1.9 0 5.84-5.57 6.2-6.9 10.5h6.9v2.5h-10c0-7.62 7.22-7.44 7.22-12.92 0-1.47-.63-2.7-2.18-2.7zm-17.4-1.63h10.08v2.23c-3.2 4.65-4.84 9.34-5.35 14.97h-2.9c.63-5.56 2.38-10.16 5.68-14.66h-7.52zm-11.56 2.63h.2c1.66 0 3.62-.4 4.03-2.63v-.34h2.05v17.6h-2.78V-730h-3.6zM-753.64-696.75c3.3 0 5.16 2.12 5.16 9 0 6.87-1.76 9-5.16 9-3.3 0-5.15-2.25-5.15-9.06 0-6.82 1.87-8.95 5.16-8.95zm-10.7 14.26h2.77v3.3h-2.9zm-8.05-12.28c-2.05 0-2.36 1.8-2.36 3.6h-2.68c0-3.5 1.44-5.64 5.05-5.64 2.38-.3 4.54 1.4 4.85 3.76v.9c0 5.82-5.56 6.2-6.9 10.5h7v2.45h-10c0-7.63 7.12-7.47 7.12-12.94 0-1.43-.52-2.64-2.06-2.64zm-10.8 12.3h2.77v3.27h-2.9zm-7.85-14.27c3 0 4.64 1.37 4.64 4.25h-2.9c0-1-.4-2.28-1.75-2.28-2.57 0-2.68 3.5-2.68 6.05.62-1.22 1.86-1.9 3.3-1.8 2.37 0 4.23 1.8 4.23 5.24 0 4.06-1.65 6.45-5.26 6.45-4.33 0-5.15-3.36-5.15-8.4 0-5.05 1.02-9.5 5.55-9.5zm-16.9 2.97h.2c1.66 0 3.62-.4 4.03-2.63v-.35h2.06v17.54h-2.78V-692h-3.6zm-6.5 11.3h2.8v3.27h-2.8zm-8.03-12.3c-2.06 0-2.37 1.8-2.37 3.6h-2.57c0-3.5 1.33-5.64 5.04-5.64 2.38-.3 4.54 1.4 4.75 3.76.1.33.1.6.1.9 0 5.82-5.57 6.2-6.9 10.5h6.9v2.45h-10c0-7.63 7.22-7.47 7.22-12.94 0-1.43-.63-2.64-2.18-2.64zm-17.4-1.63h10.08v2.22c-3.2 4.65-4.84 9.34-5.35 14.97h-2.9c.63-5.57 2.38-10.17 5.68-14.67h-7.52zm-11.66 2.62h.3c1.66 0 3.62-.4 4.03-2.63v-.35h1.95v17.54h-2.68V-692h-3.6z" fill="#fff"/><path d="M-772.47-772.3c-1.88 0-2.37 1.8-2.37 6.97s.5 6.96 2.37 6.96c1.88 0 2.36-1.8 2.36-6.96 0-5.17-.5-6.97-2.37-6.97zM-753.62-772.3c-1.88 0-2.36 1.8-2.36 6.97s.48 6.96 2.36 6.96 2.36-1.8 2.36-6.96c0-5.17-.48-6.97-2.36-6.97zM-753.62-718.63c1.88 0 2.36-1.8 2.36-6.96s-.48-6.96-2.36-6.96-2.36 1.8-2.36 6.97.46 6.97 2.36 6.97zM-791.16-718.63c1.68 0 2.27-1.8 2.27-3.76 0-2.42-.7-3.8-2.26-3.8-2 0-2.36 1.8-2.36 3.94 0 2.12.68 3.63 2.36 3.63zM-753.62-680.6c1.88 0 2.36-1.8 2.36-6.95 0-5.17-.48-6.97-2.36-6.97s-2.36 1.8-2.36 6.97c0 5.16.46 6.96 2.36 6.96zM-791.16-680.6c1.68 0 2.27-1.8 2.27-3.75 0-2.43-.7-3.8-2.26-3.8-2 0-2.36 1.8-2.36 3.93 0 2.12.68 3.63 2.36 3.63zM-791.16-758.37c1.68 0 2.27-1.8 2.27-3.76 0-2.43-.7-3.8-2.26-3.8-2 0-2.36 1.8-2.36 3.93 0 2.12.68 3.63 2.36 3.63z" fill="#f58536"/><use xlink:href="#D" transform="matrix(1,0,0,1,-860,-669) translate(17.549999999999997 14.4)"/><use xlink:href="#E" transform="matrix(1,0,0,1,-860,-669) translate(63.5 14.4)"/><path d="M-642.5-875h-218.75v-75h-201.26" stroke="#000" stroke-width="2" fill="none"/><path d="M-641.5-874h-1.03v-2h1.03z"/><path d="M-1077.77-950l14.26-4.64v9.28z" stroke="#000" stroke-width="2"/><path d="M-642.5-545h-208.75v15h-191.26" stroke="#000" stroke-width="2" fill="none"/><path d="M-641.5-544h-1.03v-2h1.03z"/><path d="M-1057.77-530l14.26-4.64v9.28z" stroke="#000" stroke-width="2"/><path d="M-1139.97-530h-408.3v-167.24h21.5" stroke="#000" stroke-width="2" fill="none"/><path d="M-1138.7-529h-1.3v-2h.76z"/><path d="M-1511.52-697.24l-14.26 4.63v-9.28z" stroke="#000" stroke-width="2"/><path d="M-1160.93-956.53H-1470v158.03" stroke="#000" stroke-width="2" fill="none"/><path d="M-1159.9-955.78l.03.25h-1.1v-2h1z"/><path d="M-1470-783.24l-4.64-14.26h9.28z" stroke="#000" stroke-width="2"/><path d="M-1397.8-720.07h-2.23v.07h-2.2" stroke="#000" stroke-width="2" fill="none"/><path d="M-1382.55-720.07l-14.26 4.64v-9.27zM-1417.5-720l14.26-4.64v9.28z" stroke="#000" stroke-width="2"/><path d="M-1040-920h140v380h-140z" fill="#fff" fill-opacity="0"/><path d="M-1033-920h6m4 0h6m4 0h6m4 0h6m4 0h6m4 0h6m4 0h6m4 0h6m4 0h6m4 0h6m4 0h6m4 0h6m4 0h6m4 0h3v3m0 4v6m0 4v6m0 4v6m0 4v6m0 4v6m0 4v6m0 4v6m0 4v6m0 4v6m0 4v6m0 4v6m0 4v6m0 4v6m0 4v6m0 4v6m0 4v6m0 4v6m0 4v6m0 4v6m0 4v6m0 4v6m0 4v6m0 4v6m0 4v6m0 4v6m0 4v6m0 4v6m0 4v6m0 4v6m0 4v6m0 4v6m0 4v6m0 4v6m0 4v6m0 4v6m0 4v6m0 4v6m0 4v3h-3m-4 0h-6m-4 0h-6m-4 0h-6m-4 0h-6m-4 0h-6m-4 0h-6m-4 0h-6m-4 0h-6m-4 0h-6m-4 0h-6m-4 0h-6m-4 0h-6m-4 0h-6m-4 0h-3v-3m0-4v-6m0-4v-6m0-4v-6m0-4v-6m0-4v-6m0-4v-6m0-4v-6m0-4v-6m0-4v-6m0-4v-6m0-4v-6m0-4v-6m0-4v-6m0-4v-6m0-4v-6m0-4v-6m0-4v-6m0-4v-6m0-4v-6m0-4v-6m0-4v-6m0-4v-6m0-4v-6m0-4v-6m0-4v-6m0-4v-6m0-4v-6m0-4v-6m0-4v-6m0-4v-6m0-4v-6m0-4v-6m0-4v-6m0-4v-6m0-4v-6m0-4v-6m0-4v-6m0-4v-3h3" stroke="#d86613" stroke-width="2" fill="none"/><path d="M-998-920h56v56h-56v-56z" stroke="#fff" stroke-opacity="0" fill="#d86613"/><path d="M-978.32-896.27l-1.14 1.13 2.33 2.34H-990v1.6h12.87l-2.33 2.34 1.14 1.13 4.27-4.27-4.27-4.27zM-950-892.8h-12.87l2.33-2.34-1.14-1.13-4.27 4.27 4.27 4.27 1.14-1.13-2.33-2.34H-950v-1.6zM-970.8-909.37v12.87h1.6v-12.87l2.34 2.33 1.13-1.13-4.27-4.28-4.27 4.28 1.13 1.13 2.34-2.33zM-969.2-874.63v-12.87h-1.6v12.87l-2.34-2.33-1.13 1.13 4.27 4.28 4.27-4.28-1.13-1.13-2.34 2.33z" stroke="#fff" stroke-opacity="0" fill="#fff"/><g><use xlink:href="#r" transform="matrix(1,0,0,1,-1040,-849) translate(19.549999999999997 14.4)"/><use xlink:href="#s" transform="matrix(1,0,0,1,-1040,-849) translate(61.55 14.4)"/></g><path d="M-990.54-617.32h36.08c9.46 0 9.46 0 9.46 9.86v37.6c0 9.85 0 9.85-9.46 9.85h-36.08c-9.46 0-9.46 0-9.46-9.86v-37.6c0-9.86 0-9.86 9.46-9.86z" fill="#9d5025"/><path d="M-990.54-620h36.08c9.46 0 9.46 0 9.46 9.86v37.6c0 9.85 0 9.85-9.46 9.85h-36.08c-9.46 0-9.46 0-9.46-9.85v-37.6c0-9.85 0-9.85 9.46-9.85z" fill="#f58536"/><g><use xlink:href="#F" transform="matrix(1,0,0,1,-1000,-560) translate(-1.4750000000000014 14.4)"/></g><path d="M-520-780v49.42h-741.57" stroke="#000" stroke-width="2" fill="none"/><path d="M-520-795.26l4.64 14.26h-9.28zM-1276.83-730.58l14.26-4.64v9.27z" stroke="#000" stroke-width="2"/><path d="M-520-640v-67.14h-746.53" stroke="#000" stroke-width="2" fill="none"/><path d="M-520-624.74l-4.64-14.26h9.28zM-1281.8-707.14l14.27-4.63v9.27z" stroke="#000" stroke-width="2"/><defs><path d="M205 0l-28-72H64L36 0H1l101-248h38L239 0h-34zm-38-99l-47-123c-12 45-31 82-46 123h93" id="G"/><path d="M266 0h-40l-56-210L115 0H75L2-248h35L96-30l15-64 43-154h32l59 218 59-218h35" id="H"/><path d="M185-189c-5-48-123-54-124 2 14 75 158 14 163 119 3 78-121 87-175 55-17-10-28-26-33-46l33-7c5 56 141 63 141-1 0-78-155-14-162-118-5-82 145-84 179-34 5 7 8 16 11 25" id="I"/><g id="a"><use transform="matrix(0.05,0,0,0.05,0,0)" xlink:href="#G"/><use transform="matrix(0.05,0,0,0.05,11.35,0)" xlink:href="#H"/><use transform="matrix(0.05,0,0,0.05,28.299999999999997,0)" xlink:href="#I"/></g><path d="M96-169c-40 0-48 33-48 73s9 75 48 75c24 0 41-14 43-38l32 2c-6 37-31 61-74 61-59 0-76-41-82-99-10-93 101-131 147-64 4 7 5 14 7 22l-32 3c-4-21-16-35-41-35" id="J"/><path d="M24 0v-261h32V0H24" id="K"/><path d="M100-194c62-1 85 37 85 99 1 63-27 99-86 99S16-35 15-95c0-66 28-99 85-99zM99-20c44 1 53-31 53-75 0-43-8-75-51-75s-53 32-53 75 10 74 51 75" id="L"/><path d="M84 4C-5 8 30-112 23-190h32v120c0 31 7 50 39 49 72-2 45-101 50-169h31l1 190h-30c-1-10 1-25-2-33-11 22-28 36-60 37" id="M"/><path d="M85-194c31 0 48 13 60 33l-1-100h32l1 261h-30c-2-10 0-23-3-31C134-8 116 4 85 4 32 4 16-35 15-94c0-66 23-100 70-100zm9 24c-40 0-46 34-46 75 0 40 6 74 45 74 42 0 51-32 51-76 0-42-9-74-50-73" id="N"/><g id="b"><use transform="matrix(0.05,0,0,0.05,0,0)" xlink:href="#J"/><use transform="matrix(0.05,0,0,0.05,9,0)" xlink:href="#K"/><use transform="matrix(0.05,0,0,0.05,12.949999999999998,0)" xlink:href="#L"/><use transform="matrix(0.05,0,0,0.05,22.95,0)" xlink:href="#M"/><use transform="matrix(0.05,0,0,0.05,32.95,0)" xlink:href="#N"/></g><path d="M143 4C61 4 22-44 18-125c-5-107 100-154 193-111 17 8 29 25 37 43l-32 9c-13-25-37-40-76-40-61 0-88 39-88 99 0 61 29 100 91 101 35 0 62-11 79-27v-45h-74v-28h105v86C228-13 192 4 143 4" id="O"/><path d="M100-194c63 0 86 42 84 106H49c0 40 14 67 53 68 26 1 43-12 49-29l28 8c-11 28-37 45-77 45C44 4 14-33 15-96c1-61 26-98 85-98zm52 81c6-60-76-77-97-28-3 7-6 17-6 28h103" id="P"/><path d="M117-194c89-4 53 116 60 194h-32v-121c0-31-8-49-39-48C34-167 62-67 57 0H25l-1-190h30c1 10-1 24 2 32 11-22 29-35 61-36" id="Q"/><path d="M114-163C36-179 61-72 57 0H25l-1-190h30c1 12-1 29 2 39 6-27 23-49 58-41v29" id="R"/><path d="M141-36C126-15 110 5 73 4 37 3 15-17 15-53c-1-64 63-63 125-63 3-35-9-54-41-54-24 1-41 7-42 31l-33-3c5-37 33-52 76-52 45 0 72 20 72 64v82c-1 20 7 32 28 27v20c-31 9-61-2-59-35zM48-53c0 20 12 33 32 33 41-3 63-29 60-74-43 2-92-5-92 41" id="S"/><g id="c"><use transform="matrix(0.05,0,0,0.05,0,0)" xlink:href="#O"/><use transform="matrix(0.05,0,0,0.05,14,0)" xlink:href="#P"/><use transform="matrix(0.05,0,0,0.05,24,0)" xlink:href="#Q"/><use transform="matrix(0.05,0,0,0.05,34,0)" xlink:href="#P"/><use transform="matrix(0.05,0,0,0.05,44,0)" xlink:href="#R"/><use transform="matrix(0.05,0,0,0.05,49.95,0)" xlink:href="#S"/><use transform="matrix(0.05,0,0,0.05,59.95,0)" xlink:href="#K"/></g><path d="M232-93c-1 65-40 97-104 97C67 4 28-28 28-90v-158h33c8 89-33 224 67 224 102 0 64-133 71-224h33v155" id="T"/><path d="M135-143c-3-34-86-38-87 0 15 53 115 12 119 90S17 21 10-45l28-5c4 36 97 45 98 0-10-56-113-15-118-90-4-57 82-63 122-42 12 7 21 19 24 35" id="U"/><g id="d"><use transform="matrix(0.05,0,0,0.05,0,0)" xlink:href="#T"/><use transform="matrix(0.05,0,0,0.05,12.950000000000001,0)" xlink:href="#U"/><use transform="matrix(0.05,0,0,0.05,21.950000000000003,0)" xlink:href="#P"/><use transform="matrix(0.05,0,0,0.05,31.950000000000003,0)" xlink:href="#R"/><use transform="matrix(0.05,0,0,0.05,37.900000000000006,0)" xlink:href="#U"/></g><path d="M108 0H70L1-190h34L89-25l56-165h34" id="V"/><path d="M24-231v-30h32v30H24zM24 0v-190h32V0H24" id="W"/><path d="M115-194c53 0 69 39 70 98 0 66-23 100-70 100C84 3 66-7 56-30L54 0H23l1-261h32v101c10-23 28-34 59-34zm-8 174c40 0 45-34 45-75 0-40-5-75-45-74-42 0-51 32-51 76 0 43 10 73 51 73" id="X"/><path d="M59-47c-2 24 18 29 38 22v24C64 9 27 4 27-40v-127H5v-23h24l9-43h21v43h35v23H59v120" id="Y"/><path d="M179-190L93 31C79 59 56 82 12 73V49c39 6 53-20 64-50L1-190h34L92-34l54-156h33" id="Z"/><g id="e"><use transform="matrix(0.05,0,0,0.05,0,0)" xlink:href="#G"/><use transform="matrix(0.05,0,0,0.05,11.65,0)" xlink:href="#V"/><use transform="matrix(0.05,0,0,0.05,20.65,0)" xlink:href="#S"/><use transform="matrix(0.05,0,0,0.05,30.649999999999995,0)" xlink:href="#W"/><use transform="matrix(0.05,0,0,0.05,34.6,0)" xlink:href="#K"/><use transform="matrix(0.05,0,0,0.05,38.550000000000004,0)" xlink:href="#S"/><use transform="matrix(0.05,0,0,0.05,48.550000000000004,0)" xlink:href="#X"/><use transform="matrix(0.05,0,0,0.05,58.550000000000004,0)" xlink:href="#W"/><use transform="matrix(0.05,0,0,0.05,62.5,0)" xlink:href="#K"/><use transform="matrix(0.05,0,0,0.05,66.45,0)" xlink:href="#W"/><use transform="matrix(0.05,0,0,0.05,70.4,0)" xlink:href="#Y"/><use transform="matrix(0.05,0,0,0.05,75.4,0)" xlink:href="#Z"/></g><path d="M209 0H11v-25l151-195H24v-28h176v25L50-27h159V0" id="aa"/><g id="f"><use transform="matrix(0.05,0,0,0.05,0,0)" xlink:href="#aa"/><use transform="matrix(0.05,0,0,0.05,10.950000000000001,0)" xlink:href="#L"/><use transform="matrix(0.05,0,0,0.05,20.950000000000003,0)" xlink:href="#Q"/><use transform="matrix(0.05,0,0,0.05,30.950000000000003,0)" xlink:href="#P"/></g><g id="g"><use transform="matrix(0.05,0,0,0.05,0,0)" xlink:href="#V"/><use transform="matrix(0.05,0,0,0.05,9,0)" xlink:href="#W"/><use transform="matrix(0.05,0,0,0.05,12.949999999999998,0)" xlink:href="#R"/><use transform="matrix(0.05,0,0,0.05,18.9,0)" xlink:href="#Y"/><use transform="matrix(0.05,0,0,0.05,23.9,0)" xlink:href="#M"/><use transform="matrix(0.05,0,0,0.05,33.9,0)" xlink:href="#S"/><use transform="matrix(0.05,0,0,0.05,43.9,0)" xlink:href="#K"/></g><path d="M115-194c55 1 70 41 70 98S169 2 115 4C84 4 66-9 55-30l1 105H24l-1-265h31l2 30c10-21 28-34 59-34zm-8 174c40 0 45-34 45-75s-6-73-45-74c-42 0-51 32-51 76 0 43 10 73 51 73" id="ab"/><g id="h"><use transform="matrix(0.05,0,0,0.05,0,0)" xlink:href="#ab"/><use transform="matrix(0.05,0,0,0.05,10,0)" xlink:href="#R"/><use transform="matrix(0.05,0,0,0.05,15.949999999999998,0)" xlink:href="#W"/><use transform="matrix(0.05,0,0,0.05,19.9,0)" xlink:href="#V"/><use transform="matrix(0.05,0,0,0.05,28.899999999999995,0)" xlink:href="#S"/><use transform="matrix(0.05,0,0,0.05,38.9,0)" xlink:href="#Y"/><use transform="matrix(0.05,0,0,0.05,43.9,0)" xlink:href="#P"/></g><path d="M30-248c87 1 191-15 191 75 0 78-77 80-158 76V0H30v-248zm33 125c57 0 124 11 124-50 0-59-68-47-124-48v98" id="ac"/><g id="i"><use transform="matrix(0.05,0,0,0.05,0,0)" xlink:href="#ac"/><use transform="matrix(0.05,0,0,0.05,12,0)" xlink:href="#M"/><use transform="matrix(0.05,0,0,0.05,22,0)" xlink:href="#X"/><use transform="matrix(0.05,0,0,0.05,32,0)" xlink:href="#K"/><use transform="matrix(0.05,0,0,0.05,35.95,0)" xlink:href="#W"/><use transform="matrix(0.05,0,0,0.05,39.900000000000006,0)" xlink:href="#J"/></g><g id="j"><use transform="matrix(0.05,0,0,0.05,0,0)" xlink:href="#U"/><use transform="matrix(0.05,0,0,0.05,9,0)" xlink:href="#M"/><use transform="matrix(0.05,0,0,0.05,19,0)" xlink:href="#X"/><use transform="matrix(0.05,0,0,0.05,29,0)" xlink:href="#Q"/><use transform="matrix(0.05,0,0,0.05,39,0)" xlink:href="#P"/><use transform="matrix(0.05,0,0,0.05,49,0)" xlink:href="#Y"/></g><path d="M27 0v-27h64v-190l-56 39v-29l58-41h29v221h61V0H27" id="ad"/><use transform="matrix(0.05,0,0,0.05,0,0)" xlink:href="#ad" id="k"/><g id="l"><use transform="matrix(0.05,0,0,0.05,0,0)" xlink:href="#ac"/><use transform="matrix(0.05,0,0,0.05,12,0)" xlink:href="#R"/><use transform="matrix(0.05,0,0,0.05,17.95,0)" xlink:href="#W"/><use transform="matrix(0.05,0,0,0.05,21.9,0)" xlink:href="#V"/><use transform="matrix(0.05,0,0,0.05,30.899999999999995,0)" xlink:href="#S"/><use transform="matrix(0.05,0,0,0.05,40.9,0)" xlink:href="#Y"/></g><path d="M101-251c82-7 93 87 43 132L82-64C71-53 59-42 53-27h129V0H18c2-99 128-94 128-182 0-28-16-43-45-43s-46 15-49 41l-32-3c6-41 34-60 81-64" id="ae"/><use transform="matrix(0.05,0,0,0.05,0,0)" xlink:href="#ae" id="m"/><path d="M33 0v-248h34V0H33" id="af"/><g id="n"><use transform="matrix(0.05,0,0,0.05,0,0)" xlink:href="#af"/><use transform="matrix(0.05,0,0,0.05,5,0)" xlink:href="#Q"/><use transform="matrix(0.05,0,0,0.05,15,0)" xlink:href="#Y"/><use transform="matrix(0.05,0,0,0.05,20,0)" xlink:href="#P"/><use transform="matrix(0.05,0,0,0.05,30,0)" xlink:href="#R"/><use transform="matrix(0.05,0,0,0.05,35.95,0)" xlink:href="#Q"/><use transform="matrix(0.05,0,0,0.05,45.95,0)" xlink:href="#P"/><use transform="matrix(0.05,0,0,0.05,55.95,0)" xlink:href="#Y"/></g><path d="M177-190C167-65 218 103 67 71c-23-6-38-20-44-43l32-5c15 47 100 32 89-28v-30C133-14 115 1 83 1 29 1 15-40 15-95c0-56 16-97 71-98 29-1 48 16 59 35 1-10 0-23 2-32h30zM94-22c36 0 50-32 50-73 0-42-14-75-50-75-39 0-46 34-46 75s6 73 46 73" id="ag"/><path d="M206 0h-36l-40-164L89 0H53L-1-190h32L70-26l43-164h34l41 164 42-164h31" id="ah"/><g id="o"><use transform="matrix(0.05,0,0,0.05,0,0)" xlink:href="#ag"/><use transform="matrix(0.05,0,0,0.05,10,0)" xlink:href="#S"/><use transform="matrix(0.05,0,0,0.05,20,0)" xlink:href="#Y"/><use transform="matrix(0.05,0,0,0.05,25,0)" xlink:href="#P"/><use transform="matrix(0.05,0,0,0.05,35,0)" xlink:href="#ah"/><use transform="matrix(0.05,0,0,0.05,47.95,0)" xlink:href="#S"/><use transform="matrix(0.05,0,0,0.05,57.95,0)" xlink:href="#Z"/></g><path d="M137 0h-34L2-248h35l83 218 83-218h36" id="ai"/><path d="M212-179c-10-28-35-45-73-45-59 0-87 40-87 99 0 60 29 101 89 101 43 0 62-24 78-52l27 14C228-24 195 4 139 4 59 4 22-46 18-125c-6-104 99-153 187-111 19 9 31 26 39 46" id="aj"/><g id="p"><use transform="matrix(0.05,0,0,0.05,0,0)" xlink:href="#ai"/><use transform="matrix(0.05,0,0,0.05,12,0)" xlink:href="#ac"/><use transform="matrix(0.05,0,0,0.05,24,0)" xlink:href="#aj"/></g><path d="M190 0L58-211 59 0H30v-248h39L202-35l-2-213h31V0h-41" id="ak"/><path d="M127-220V0H93v-220H8v-28h204v28h-85" id="al"/><g id="q"><use transform="matrix(0.05,0,0,0.05,0,0)" xlink:href="#ak"/><use transform="matrix(0.05,0,0,0.05,12.950000000000001,0)" xlink:href="#G"/><use transform="matrix(0.05,0,0,0.05,23.6,0)" xlink:href="#al"/></g><path fill="#d86613" d="M205 0l-28-72H64L36 0H1l101-248h38L239 0h-34zm-38-99l-47-123c-12 45-31 82-46 123h93" id="am"/><path fill="#d86613" d="M84 4C-5 8 30-112 23-190h32v120c0 31 7 50 39 49 72-2 45-101 50-169h31l1 190h-30c-1-10 1-25-2-33-11 22-28 36-60 37" id="an"/><path fill="#d86613" d="M59-47c-2 24 18 29 38 22v24C64 9 27 4 27-40v-127H5v-23h24l9-43h21v43h35v23H59v120" id="ao"/><path fill="#d86613" d="M100-194c62-1 85 37 85 99 1 63-27 99-86 99S16-35 15-95c0-66 28-99 85-99zM99-20c44 1 53-31 53-75 0-43-8-75-51-75s-53 32-53 75 10 74 51 75" id="ap"/><g id="r"><use transform="matrix(0.05,0,0,0.05,0,0)" xlink:href="#am"/><use transform="matrix(0.05,0,0,0.05,12,0)" xlink:href="#an"/><use transform="matrix(0.05,0,0,0.05,22,0)" xlink:href="#ao"/><use transform="matrix(0.05,0,0,0.05,27,0)" xlink:href="#ap"/></g><path fill="#d86613" d="M185-189c-5-48-123-54-124 2 14 75 158 14 163 119 3 78-121 87-175 55-17-10-28-26-33-46l33-7c5 56 141 63 141-1 0-78-155-14-162-118-5-82 145-84 179-34 5 7 8 16 11 25" id="aq"/><path fill="#d86613" d="M96-169c-40 0-48 33-48 73s9 75 48 75c24 0 41-14 43-38l32 2c-6 37-31 61-74 61-59 0-76-41-82-99-10-93 101-131 147-64 4 7 5 14 7 22l-32 3c-4-21-16-35-41-35" id="ar"/><path fill="#d86613" d="M141-36C126-15 110 5 73 4 37 3 15-17 15-53c-1-64 63-63 125-63 3-35-9-54-41-54-24 1-41 7-42 31l-33-3c5-37 33-52 76-52 45 0 72 20 72 64v82c-1 20 7 32 28 27v20c-31 9-61-2-59-35zM48-53c0 20 12 33 32 33 41-3 63-29 60-74-43 2-92-5-92 41" id="as"/><path fill="#d86613" d="M24 0v-261h32V0H24" id="at"/><path fill="#d86613" d="M24-231v-30h32v30H24zM24 0v-190h32V0H24" id="au"/><path fill="#d86613" d="M117-194c89-4 53 116 60 194h-32v-121c0-31-8-49-39-48C34-167 62-67 57 0H25l-1-190h30c1 10-1 24 2 32 11-22 29-35 61-36" id="av"/><path fill="#d86613" d="M177-190C167-65 218 103 67 71c-23-6-38-20-44-43l32-5c15 47 100 32 89-28v-30C133-14 115 1 83 1 29 1 15-40 15-95c0-56 16-97 71-98 29-1 48 16 59 35 1-10 0-23 2-32h30zM94-22c36 0 50-32 50-73 0-42-14-75-50-75-39 0-46 34-46 75s6 73 46 73" id="aw"/><g id="s"><use transform="matrix(0.05,0,0,0.05,0,0)" xlink:href="#aq"/><use transform="matrix(0.05,0,0,0.05,12,0)" xlink:href="#ar"/><use transform="matrix(0.05,0,0,0.05,21,0)" xlink:href="#as"/><use transform="matrix(0.05,0,0,0.05,31,0)" xlink:href="#at"/><use transform="matrix(0.05,0,0,0.05,34.95,0)" xlink:href="#au"/><use transform="matrix(0.05,0,0,0.05,38.900000000000006,0)" xlink:href="#av"/><use transform="matrix(0.05,0,0,0.05,48.900000000000006,0)" xlink:href="#aw"/></g><path d="M210-169c-67 3-38 105-44 169h-31v-121c0-29-5-50-35-48C34-165 62-65 56 0H25l-1-190h30c1 10-1 24 2 32 10-44 99-50 107 0 11-21 27-35 58-36 85-2 47 119 55 194h-31v-121c0-29-5-49-35-48" id="ax"/><path d="M9 0v-24l116-142H16v-24h144v24L44-24h123V0H9" id="ay"/><g id="t"><use transform="matrix(0.05,0,0,0.05,0,0)" xlink:href="#G"/><use transform="matrix(0.05,0,0,0.05,12,0)" xlink:href="#ax"/><use transform="matrix(0.05,0,0,0.05,26.950000000000003,0)" xlink:href="#S"/><use transform="matrix(0.05,0,0,0.05,36.95,0)" xlink:href="#ay"/><use transform="matrix(0.05,0,0,0.05,45.95,0)" xlink:href="#L"/><use transform="matrix(0.05,0,0,0.05,55.95,0)" xlink:href="#Q"/></g><path d="M30 0v-248h187v28H63v79h144v27H63v87h162V0H30" id="az"/><g id="u"><use transform="matrix(0.05,0,0,0.05,0,0)" xlink:href="#az"/><use transform="matrix(0.05,0,0,0.05,12,0)" xlink:href="#aj"/><use transform="matrix(0.05,0,0,0.05,24.950000000000003,0)" xlink:href="#ae"/></g><g id="v"><use transform="matrix(0.05,0,0,0.05,0,0)" xlink:href="#U"/><use transform="matrix(0.05,0,0,0.05,9,0)" xlink:href="#P"/><use transform="matrix(0.05,0,0,0.05,19,0)" xlink:href="#J"/><use transform="matrix(0.05,0,0,0.05,28,0)" xlink:href="#M"/><use transform="matrix(0.05,0,0,0.05,38,0)" xlink:href="#R"/><use transform="matrix(0.05,0,0,0.05,43.95,0)" xlink:href="#W"/><use transform="matrix(0.05,0,0,0.05,47.900000000000006,0)" xlink:href="#Y"/><use transform="matrix(0.05,0,0,0.05,52.900000000000006,0)" xlink:href="#Z"/></g><g id="w"><use transform="matrix(0.05,0,0,0.05,0,0)" xlink:href="#ag"/><use transform="matrix(0.05,0,0,0.05,10,0)" xlink:href="#R"/><use transform="matrix(0.05,0,0,0.05,15.949999999999998,0)" xlink:href="#L"/><use transform="matrix(0.05,0,0,0.05,25.950000000000003,0)" xlink:href="#M"/><use transform="matrix(0.05,0,0,0.05,35.95,0)" xlink:href="#ab"/></g><path d="M143 0L79-87 56-68V0H24v-261h32v163l83-92h37l-77 82L181 0h-38" id="aA"/><g id="x"><use transform="matrix(0.05,0,0,0.05,0,0)" xlink:href="#X"/><use transform="matrix(0.05,0,0,0.05,10,0)" xlink:href="#M"/><use transform="matrix(0.05,0,0,0.05,20,0)" xlink:href="#J"/><use transform="matrix(0.05,0,0,0.05,29,0)" xlink:href="#aA"/><use transform="matrix(0.05,0,0,0.05,38,0)" xlink:href="#P"/><use transform="matrix(0.05,0,0,0.05,48,0)" xlink:href="#Y"/></g><path d="M106-169C34-169 62-67 57 0H25v-261h32l-1 103c12-21 28-36 61-36 89 0 53 116 60 194h-32v-121c2-32-8-49-39-48" id="aB"/><g id="y"><use transform="matrix(0.05,0,0,0.05,0,0)" xlink:href="#ah"/><use transform="matrix(0.05,0,0,0.05,12.950000000000001,0)" xlink:href="#W"/><use transform="matrix(0.05,0,0,0.05,16.900000000000002,0)" xlink:href="#Y"/><use transform="matrix(0.05,0,0,0.05,21.900000000000002,0)" xlink:href="#aB"/></g><path d="M24-231v-30h32v30H24zM-9 49c24 4 33-6 33-30v-209h32V24c2 40-23 58-65 49V49" id="aC"/><g id="z"><use transform="matrix(0.05,0,0,0.05,0,0)" xlink:href="#L"/><use transform="matrix(0.05,0,0,0.05,10,0)" xlink:href="#X"/><use transform="matrix(0.05,0,0,0.05,20,0)" xlink:href="#aC"/><use transform="matrix(0.05,0,0,0.05,23.95,0)" xlink:href="#P"/><use transform="matrix(0.05,0,0,0.05,33.95,0)" xlink:href="#J"/><use transform="matrix(0.05,0,0,0.05,42.95,0)" xlink:href="#Y"/><use transform="matrix(0.05,0,0,0.05,47.95,0)" xlink:href="#U"/></g><g id="A"><use transform="matrix(0.05,0,0,0.05,0,0)" xlink:href="#az"/><use transform="matrix(0.05,0,0,0.05,12,0)" xlink:href="#K"/><use transform="matrix(0.05,0,0,0.05,15.949999999999998,0)" xlink:href="#S"/><use transform="matrix(0.05,0,0,0.05,25.950000000000003,0)" xlink:href="#U"/><use transform="matrix(0.05,0,0,0.05,34.95,0)" xlink:href="#Y"/><use transform="matrix(0.05,0,0,0.05,39.95,0)" xlink:href="#W"/><use transform="matrix(0.05,0,0,0.05,43.900000000000006,0)" xlink:href="#J"/></g><path d="M30 0v-248h33v221h125V0H30" id="aD"/><g id="B"><use transform="matrix(0.05,0,0,0.05,0,0)" xlink:href="#aD"/><use transform="matrix(0.05,0,0,0.05,10,0)" xlink:href="#L"/><use transform="matrix(0.05,0,0,0.05,20,0)" xlink:href="#S"/><use transform="matrix(0.05,0,0,0.05,30,0)" xlink:href="#N"/></g><path d="M160-131c35 5 61 23 61 61C221 17 115-2 30 0v-248c76 3 177-17 177 60 0 33-19 50-47 57zm-97-11c50-1 110 9 110-42 0-47-63-36-110-37v79zm0 115c55-2 124 14 124-45 0-56-70-42-124-44v89" id="aE"/><g id="C"><use transform="matrix(0.05,0,0,0.05,0,0)" xlink:href="#aE"/><use transform="matrix(0.05,0,0,0.05,12,0)" xlink:href="#S"/><use transform="matrix(0.05,0,0,0.05,22,0)" xlink:href="#K"/><use transform="matrix(0.05,0,0,0.05,25.950000000000003,0)" xlink:href="#S"/><use transform="matrix(0.05,0,0,0.05,35.95,0)" xlink:href="#Q"/><use transform="matrix(0.05,0,0,0.05,45.95,0)" xlink:href="#J"/><use transform="matrix(0.05,0,0,0.05,54.95,0)" xlink:href="#P"/><use transform="matrix(0.05,0,0,0.05,64.95,0)" xlink:href="#R"/></g><g id="D"><use transform="matrix(0.05,0,0,0.05,0,0)" xlink:href="#R"/><use transform="matrix(0.05,0,0,0.05,5.95,0)" xlink:href="#L"/><use transform="matrix(0.05,0,0,0.05,15.949999999999998,0)" xlink:href="#M"/><use transform="matrix(0.05,0,0,0.05,25.950000000000003,0)" xlink:href="#Y"/><use transform="matrix(0.05,0,0,0.05,30.950000000000003,0)" xlink:href="#P"/></g><g id="E"><use transform="matrix(0.05,0,0,0.05,0,0)" xlink:href="#Y"/><use transform="matrix(0.05,0,0,0.05,5,0)" xlink:href="#S"/><use transform="matrix(0.05,0,0,0.05,15,0)" xlink:href="#X"/><use transform="matrix(0.05,0,0,0.05,25,0)" xlink:href="#K"/><use transform="matrix(0.05,0,0,0.05,28.950000000000003,0)" xlink:href="#P"/></g><g id="F"><use transform="matrix(0.05,0,0,0.05,0,0)" xlink:href="#X"/><use transform="matrix(0.05,0,0,0.05,10,0)" xlink:href="#S"/><use transform="matrix(0.05,0,0,0.05,20,0)" xlink:href="#U"/><use transform="matrix(0.05,0,0,0.05,29,0)" xlink:href="#Y"/><use transform="matrix(0.05,0,0,0.05,34,0)" xlink:href="#W"/><use transform="matrix(0.05,0,0,0.05,37.95,0)" xlink:href="#L"/><use transform="matrix(0.05,0,0,0.05,47.95,0)" xlink:href="#Q"/></g></defs></g></svg>